<?xml version="1.0" standalone="no"?>
<!DOCTYPE svg PUBLIC "-//W3C//DTD SVG 20010904//EN"
 "http://www.w3.org/TR/2001/REC-SVG-20010904/DTD/svg10.dtd">
<svg version="1.0" xmlns="http://www.w3.org/2000/svg"
 width="320.000000pt" height="320.000000pt" viewBox="0 0 320.000000 320.000000"
 preserveAspectRatio="xMidYMid meet">
<metadata>
Created by potrace 1.14, written by Peter Selinger 2001-2017
</metadata>
<g transform="translate(0.000000,320.000000) scale(0.100000,-0.100000)"
fill="#000000" stroke="none">
<path d="M1280 2920 l0 -40 -160 0 -160 0 0 -40 0 -40 -80 0 -80 0 0 -40 0
-40 -80 0 -80 0 0 -40 0 -40 -40 0 -40 0 0 -40 0 -40 -40 0 -40 0 0 -40 0 -40
-40 0 -40 0 0 -40 0 -40 -40 0 -40 0 0 -80 0 -80 -40 0 -40 0 0 -80 0 -80 -40
0 -40 0 0 -119 0 -120 -38 -3 -37 -3 -3 -277 -2 -278 40 0 40 0 0 -120 0 -120
40 0 40 0 0 -80 0 -80 40 0 40 0 0 -40 0 -40 80 0 80 0 0 -80 0 -80 40 0 40 0
0 -80 0 -80 40 0 40 0 0 -40 0 -40 40 0 40 0 0 -40 0 -40 80 0 80 0 0 -35 c0
-34 1 -35 40 -35 39 0 40 1 40 35 0 34 -1 35 -41 35 l-41 0 2 43 c1 23 1 59 1
80 -1 36 -2 37 -41 37 l-40 0 0 194 0 195 43 3 42 3 0 92 c0 50 2 88 5 84 3
-4 34 -12 70 -17 l65 -9 9 -73 9 -72 39 0 38 0 0 -80 0 -80 40 0 40 0 0 -40 0
-40 40 0 40 0 0 -40 0 -40 40 0 40 0 0 -40 0 -40 40 0 40 0 0 80 0 80 -40 0
-40 0 0 120 0 120 40 0 40 0 0 -40 0 -40 160 0 160 0 0 40 0 40 40 0 40 0 0
-120 0 -120 -40 0 -40 0 0 -80 0 -80 40 0 40 0 0 40 0 40 40 0 40 0 0 40 0 40
40 0 40 0 0 40 0 40 40 0 40 0 0 80 0 80 40 0 40 0 0 120 0 120 80 0 80 0 0
-120 0 -120 40 0 40 0 0 -200 0 -200 -40 0 -40 0 0 -80 0 -80 -40 0 -40 0 0
-40 0 -40 40 0 40 0 0 40 0 40 80 0 80 0 0 40 0 40 40 0 40 0 0 40 0 40 40 0
40 0 0 80 0 80 40 0 40 0 0 80 0 80 80 0 80 0 0 40 0 40 40 0 40 0 0 80 0 80
40 0 40 0 0 120 0 120 40 0 40 0 -2 278 -3 277 -37 3 -38 3 0 120 0 119 -40 0
-40 0 0 80 0 80 -40 0 -40 0 0 40 0 40 -40 0 -40 0 0 80 0 80 -40 0 -40 0 0
40 0 40 -40 0 -40 0 0 40 0 40 -40 0 -40 0 0 40 0 40 -80 0 -80 0 0 40 0 40
-80 0 -80 0 0 40 0 40 -160 0 -160 0 0 40 0 40 -320 0 -320 0 0 -40z m152
-305 c8 -18 8 -28 -1 -38 -11 -14 -60 -20 -62 -8 0 3 -2 14 -4 24 -4 20 20 47
41 47 8 0 19 -11 26 -25z m240 3 c4 -7 6 -18 4 -25 -7 -19 17 -42 48 -45 24
-2 30 -8 33 -33 5 -34 19 -46 48 -40 11 2 25 4 31 4 6 1 10 16 9 36 -2 37 11
47 50 41 14 -2 20 -11 21 -28 2 -41 12 -57 32 -53 27 5 44 -9 47 -38 4 -38 11
-43 45 -41 40 3 44 8 45 47 0 26 4 32 23 33 39 2 52 -21 47 -83 -3 -31 -8 -59
-11 -62 -3 -3 -38 -8 -77 -11 l-72 -5 -3 -32 c-3 -29 -7 -33 -32 -33 -27 0
-28 2 -35 63 -10 97 -4 92 -97 94 -46 1 -93 2 -105 3 -22 2 -36 26 -31 51 2
11 -17 15 -84 17 l-87 3 -3 -33 c-3 -31 -6 -33 -48 -40 -25 -3 -78 -7 -117 -7
l-73 -1 0 -29 c0 -15 -3 -49 -6 -75 -7 -45 -8 -47 -38 -44 l-31 3 -2 98 c-1
76 2 100 14 113 9 8 22 13 29 10 20 -8 42 19 39 48 -3 27 7 34 45 32 20 -1 25
-6 25 -27 0 -37 23 -60 54 -56 22 3 26 9 29 40 2 20 9 38 15 38 7 1 23 3 36 4
26 3 42 21 34 40 -2 7 3 19 11 28 19 19 125 15 138 -5z m154 -3 c12 -18 13
-29 6 -38 -12 -14 -62 -21 -63 -9 0 4 -2 16 -4 27 -4 22 11 45 31 45 7 0 21
-11 30 -25z m248 -81 c9 -23 -5 -44 -29 -44 -35 0 -50 55 -17 62 23 6 39 -1
46 -18z m233 -67 c6 -4 11 -20 10 -35 -2 -24 -7 -27 -38 -28 -35 -1 -36 1 -36
30 2 43 27 56 64 33z m165 -253 c13 -28 -4 -49 -44 -52 -26 -2 -28 1 -28 37 0
38 1 40 31 39 22 -1 34 -8 41 -24z m-232 -19 c0 -28 4 -35 19 -35 36 0 50 -12
57 -46 l6 -34 62 -1 c164 -2 182 -7 171 -50 -4 -17 -13 -24 -32 -26 -33 -1
-55 -30 -47 -57 8 -26 5 -24 34 -28 35 -5 50 -16 50 -38 0 -22 -4 -25 -47 -35
-33 -7 -33 -7 -33 34 0 39 -1 40 -37 43 -36 3 -38 5 -41 41 l-3 38 -122 -3
-122 -3 -5 -35 c-4 -31 -9 -35 -34 -35 -36 -1 -40 10 -29 87 6 45 12 63 23 64
8 1 23 2 33 3 15 1 17 12 17 76 l0 75 40 0 c39 0 40 -1 40 -35z m-1127 -184
c11 -77 6 -90 -30 -88 -24 2 -29 8 -33 37 -5 33 -7 35 -47 38 -39 3 -42 5 -41
33 1 38 20 48 88 45 l55 -3 8 -62z m167 -126 c0 -30 -3 -35 -22 -35 -13 0 -46
-3 -74 -6 -50 -6 -51 -6 -57 22 -9 49 -1 54 79 54 l74 0 0 -35z m793 22 c3 -7
3 -26 0 -41 -6 -28 -7 -28 -57 -22 -28 3 -61 6 -73 6 -20 0 -23 5 -23 35 l0
35 74 0 c52 0 75 -4 79 -13z m-713 -107 l0 -40 88 -2 c105 -2 198 -2 310 0
l82 2 0 40 c0 39 1 40 35 40 34 0 35 -1 35 -40 0 -39 -1 -40 -35 -40 l-35 0 0
-80 0 -80 40 0 c40 0 40 0 40 -39 0 -37 -2 -39 -35 -43 -19 -2 -38 -1 -43 3
-4 4 -16 9 -27 12 -18 4 -18 5 3 6 18 1 22 7 22 31 0 28 -2 30 -40 30 l-40 0
0 40 0 40 -160 0 -160 0 0 -40 0 -40 -40 0 c-38 0 -40 -2 -40 -30 0 -26 4 -30
28 -31 26 -2 26 -2 2 -6 -14 -3 -28 -8 -32 -12 -5 -4 -24 -5 -43 -3 -33 4 -35
6 -35 43 0 39 0 39 40 39 l40 0 0 80 0 80 -35 0 c-34 0 -35 1 -35 40 0 39 1
40 35 40 34 0 35 -1 35 -40z m-182 -42 c5 -7 11 -27 14 -45 4 -31 3 -32 -34
-31 -37 0 -38 1 -38 38 0 37 5 42 41 49 4 0 11 -5 17 -11z m893 2 c5 0 9 -18
9 -40 0 -39 -1 -40 -35 -40 -33 0 -35 2 -35 33 0 37 17 60 38 52 8 -3 18 -5
23 -5z m-1264 -47 c-3 -10 -5 -4 -5 12 0 17 2 24 5 18 2 -7 2 -21 0 -30z m150
-75 c-3 -7 -5 -2 -5 12 0 14 2 19 5 13 2 -7 2 -19 0 -25z m1290 0 c-3 -7 -5
-2 -5 12 0 14 2 19 5 13 2 -7 2 -19 0 -25z m68 -28 c-3 -5 -14 -10 -23 -9 -14
0 -13 2 3 9 27 11 27 11 20 0z m-1392 -7 c-7 -2 -19 -2 -25 0 -7 3 -2 5 12 5
14 0 19 -2 13 -5z m828 -156 c-10 -9 -11 -8 -5 6 3 10 9 15 12 12 3 -3 0 -11
-7 -18z m-286 -5 c-3 -3 -11 0 -18 7 -9 10 -8 11 6 5 10 -3 15 -9 12 -12z
m-128 2 c-3 -3 -12 -4 -19 -1 -8 3 -5 6 6 6 11 1 17 -2 13 -5z m556 -1 c-7 -2
-19 -2 -25 0 -7 3 -2 5 12 5 14 0 19 -2 13 -5z m-462 -10 c11 -75 11 -76 -23
-69 -37 7 -35 6 -38 26 -6 40 0 50 30 50 17 0 31 -3 31 -7z m386 1 c19 -5 22
-11 16 -33 -7 -30 -20 -41 -50 -41 -18 0 -22 6 -21 33 1 49 7 54 55 41z"/>
</g>
</svg>
